<svg width="74" height="16" viewBox="0 0 74 16" fill="none" xmlns="http://www.w3.org/2000/svg">
<path d="M0.666667 8C0.666666 10.9455 3.05448 13.3333 6 13.3333C8.94552 13.3333 11.3333 10.9455 11.3333 8C11.3333 5.05448 8.94552 2.66667 6 2.66667C3.05448 2.66667 0.666667 5.05448 0.666667 8ZM73.7071 8.70711C74.0976 8.31659 74.0976 7.68342 73.7071 7.2929L67.3431 0.928938C66.9526 0.538413 66.3195 0.538413 65.9289 0.928937C65.5384 1.31946 65.5384 1.95263 65.9289 2.34315L71.5858 8.00001L65.9289 13.6569C65.5384 14.0474 65.5384 14.6805 65.9289 15.0711C66.3195 15.4616 66.9526 15.4616 67.3431 15.0711L73.7071 8.70711ZM6 9L73 9.00001L73 7.00001L6 7L6 9Z" fill="#0D3B3B"/>
</svg>
