<svg width="671" height="671" viewBox="0 0 671 671" fill="none" xmlns="http://www.w3.org/2000/svg">
<path d="M194.783 14.4371C121.728 50.3827 68.1148 104.596 32.4711 177.96C25.1067 193.576 19.8043 207.129 20.688 208.308C21.8663 209.191 34.2386 204.477 48.3782 197.701C121.728 162.344 177.403 108.426 212.752 38.3026C226.892 10.0175 230.426 -7.62939e-05 226.597 -7.62939e-05C225.124 -7.62939e-05 210.984 6.48192 194.783 14.4371Z" fill="white" fill-opacity="0.53"/>
<path d="M46.3155 238.359C38.9511 239.243 33.0596 241.306 33.0596 243.073C33.3541 248.082 73.122 274.305 103.758 289.037C165.324 318.795 240.736 329.991 304.659 319.089L314.38 317.616L303.481 308.777C234.55 254.27 134.099 226.574 46.3155 238.359Z" fill="white" fill-opacity="0.53"/>
<path d="M3.89691 270.77C2.71861 272.538 1.24572 290.805 0.361994 311.429C-3.17292 389.508 19.2149 464.346 66.0525 529.755C82.2542 552.442 82.8434 551.852 86.0837 511.193C91.3861 440.185 68.9983 357.098 26.8739 294.635C11.5559 271.359 6.5481 266.35 3.89691 270.77Z" fill="white" fill-opacity="0.53"/>
<path d="M289.047 363.58C215.697 399.82 159.138 456.979 124.967 529.755C118.781 543.308 114.363 555.093 115.246 555.977C117.603 558.629 170.038 532.406 190.363 518.853C248.69 479.077 295.527 419.855 320.566 354.446C322.039 350.616 322.628 347.669 322.334 347.669C322.039 347.669 307.016 354.741 289.047 363.58Z" fill="white" fill-opacity="0.53"/>
<path d="M350.908 376.248C347.667 407.774 351.497 475.835 358.272 501.173C370.644 549.199 396.272 601.939 421.606 631.992L431.621 643.777L433.684 623.447C437.218 591.627 433.389 526.217 426.614 500.879C413.063 448.728 389.497 400.408 359.745 364.757L353.264 356.507L350.908 376.248Z" fill="white" fill-opacity="0.53"/>
<path d="M641.949 455.213C626.925 462.284 605.127 474.659 593.343 482.319C565.359 501.176 522.351 543.898 503.203 572.478C486.118 597.817 463.435 643.191 465.203 648.199C466.381 652.324 515.281 628.459 542.382 610.486C571.25 591.335 613.08 548.612 633.406 517.97C648.724 494.694 672.879 445.785 670.228 443.427C669.639 442.838 656.972 448.142 641.949 455.213Z" fill="white" fill-opacity="0.53"/>
<path d="M140.581 585.44C133.217 586.029 126.147 587.797 124.969 589.27C121.728 592.217 153.837 615.198 185.062 631.698C238.675 660.277 297.885 673.536 359.746 670.59C380.661 669.706 399.219 667.643 400.692 666.17C404.816 662.045 367.994 636.117 336.474 620.502C287.28 596.047 248.396 586.618 192.132 585.145C171.217 584.556 147.946 584.556 140.581 585.44Z" fill="white" fill-opacity="0.53"/>
<path d="M215.697 102.53C197.728 128.458 157.666 168.234 130.565 187.68L105.82 205.358L139.991 210.072C179.759 215.67 214.224 225.688 248.101 241.598L271.961 252.5L260.767 226.277C246.333 192.984 236.023 152.324 232.194 116.084C230.426 100.468 228.953 87.2092 228.364 86.9146C227.775 86.3253 222.178 93.3966 215.697 102.53Z" fill="white" fill-opacity="0.53"/>
<path d="M84.9058 336.177C99.9292 370.355 107.883 400.113 113.774 441.067L118.488 474.361L135.868 450.79C157.077 421.916 194.783 385.381 221.589 367.408L241.326 354.15L224.24 352.087C173.573 346.489 122.612 332.936 90.5028 316.731C82.5492 312.606 75.4794 309.365 74.5957 309.365C74.0065 309.365 78.7197 321.445 84.9058 336.177Z" fill="white" fill-opacity="0.53"/>
<path d="M420.428 402.176C420.428 403.06 424.846 412.783 430.443 423.684C447.823 458.157 460.785 505.888 464.32 547.726L466.087 569.529L480.227 548.316C498.785 520.325 535.313 482.612 564.77 460.809L588.336 443.425L562.414 441.068C548.274 439.889 523.235 435.47 506.739 431.64C479.638 425.158 466.087 420.443 431.622 405.417C425.436 402.765 420.428 401.292 420.428 402.176Z" fill="white" fill-opacity="0.53"/>
<path d="M310.257 442.247C293.171 471.121 241.915 522.682 207.449 545.664L195.961 553.324L211.868 555.092C265.186 561.574 311.729 574.244 347.373 591.627L363.869 599.877L357.094 586.324C340.303 553.03 320.272 480.255 320.272 451.675C320.272 434.881 316.737 431.64 310.257 442.247Z" fill="white" fill-opacity="0.53"/>
</svg>
