<svg width="480" height="416" viewBox="0 0 480 416" fill="none" xmlns="http://www.w3.org/2000/svg">
<path d="M382.286 12.505C440.864 41.3456 483.852 84.8429 512.432 143.706C518.337 156.235 522.588 167.11 521.88 168.055C520.935 168.764 511.015 164.982 499.677 159.545C440.864 131.177 396.222 87.9161 367.878 31.6533C356.541 8.95903 353.706 0.921478 356.777 0.921478C357.958 0.921478 369.295 6.12225 382.286 12.505Z" fill="white" fill-opacity="0.2"/>
<path d="M501.33 192.167C507.235 192.877 511.959 194.531 511.959 195.95C511.723 199.968 479.836 221.008 455.271 232.828C405.906 256.704 345.439 265.687 294.184 256.941L286.389 255.759L295.128 248.667C350.399 204.933 430.943 182.711 501.33 192.167Z" fill="white" fill-opacity="0.2"/>
<path d="M535.343 218.173C536.288 219.591 537.469 234.248 538.178 250.796C541.012 313.441 523.061 373.486 485.505 425.967C472.514 444.17 472.042 443.697 469.444 411.074C465.192 354.102 483.143 287.437 516.92 237.321C529.202 218.645 533.217 214.627 535.343 218.173Z" fill="white" fill-opacity="0.2"/>
<path d="M306.703 292.636C365.516 321.713 410.866 367.574 438.266 425.965C443.226 436.839 446.769 446.295 446.06 447.004C444.171 449.132 402.127 428.092 385.829 417.218C339.062 385.304 301.506 337.788 281.43 285.308C280.249 282.235 279.776 279.871 280.012 279.871C280.249 279.871 292.295 285.544 306.703 292.636Z" fill="white" fill-opacity="0.2"/>
<path d="M257.102 302.801C259.7 328.096 256.629 382.704 251.197 403.034C241.276 441.567 220.727 483.883 200.414 507.995L192.383 517.451L190.73 501.14C187.895 475.609 190.966 423.128 196.398 402.798C207.264 360.955 226.159 322.186 250.016 293.582L255.212 286.963L257.102 302.801Z" fill="white" fill-opacity="0.2"/>
<path d="M23.7369 366.158C35.783 371.832 53.2617 381.761 62.7097 387.907C85.1486 403.037 119.634 437.314 134.987 460.245C148.686 480.575 166.873 516.981 165.456 520.999C164.511 524.309 125.302 505.161 103.572 490.74C80.4246 475.375 46.8844 441.097 30.5867 416.511C18.3043 397.836 -1.06396 358.594 1.06181 356.703C1.53421 356.23 11.6908 360.485 23.7369 366.158Z" fill="white" fill-opacity="0.2"/>
<path d="M365.517 83.1869C379.925 103.99 412.048 135.904 433.778 151.506L453.619 165.69L426.22 169.472C394.333 173.964 366.698 182.001 339.535 194.767L320.403 203.514L329.379 182.474C340.952 155.761 349.219 123.138 352.29 94.0612C353.707 81.5321 354.888 70.8941 355.36 70.6577C355.833 70.1849 360.321 75.8585 365.517 83.1869Z" fill="white" fill-opacity="0.2"/>
<path d="M470.388 270.651C458.342 298.073 451.965 321.949 447.241 354.808L443.462 381.521L429.526 362.61C412.52 339.443 382.286 310.129 360.792 295.709L344.967 285.071L358.666 283.416C399.293 278.925 440.155 268.05 465.901 255.048C472.278 251.739 477.947 249.138 478.655 249.138C479.128 249.138 475.349 258.831 470.388 270.651Z" fill="white" fill-opacity="0.2"/>
<path d="M201.358 323.607C201.358 324.316 197.815 332.117 193.328 340.864C179.392 368.522 168.999 406.819 166.165 440.387L164.748 457.881L153.41 440.86C138.53 418.402 109.241 388.143 85.621 370.65L66.7251 356.702L87.5106 354.811C98.8481 353.866 118.925 350.32 132.152 347.246C153.882 342.046 164.748 338.263 192.383 326.207C197.343 324.079 201.358 322.897 201.358 323.607Z" fill="white" fill-opacity="0.2"/>
<path d="M289.697 355.755C303.396 378.922 344.495 420.292 372.13 438.731L381.342 444.878L368.587 446.296C325.835 451.497 288.516 461.662 259.936 475.609L246.708 482.229L252.141 471.354C265.604 444.641 281.666 386.251 281.666 363.32C281.666 349.845 284.5 347.245 289.697 355.755Z" fill="white" fill-opacity="0.2"/>
</svg>
