          <svg width="531" height="428" viewBox="0 0 531 428" fill="none" xmlns="http://www.w3.org/2000/svg">
            <g clip-path="url(#clip0_3_1061)">
            <path d="M15.5678 -130.168C-57.4871 -94.2228 -111.1 -40.0098 -146.744 33.3546C-154.108 48.9703 -159.411 62.5236 -158.527 63.7021C-157.348 64.586 -144.976 59.8718 -130.837 53.0952C-57.4871 17.7389 -1.81216 -36.1795 33.537 -106.303C47.6767 -134.588 51.2116 -144.606 47.3821 -144.606C45.9092 -144.606 31.7695 -138.124 15.5678 -130.168Z" fill="white" fill-opacity="0.53"/>
            <path d="M-132.899 93.7537C-140.264 94.6376 -146.155 96.7001 -146.155 98.4679C-145.861 103.477 -106.093 129.699 -75.4569 144.431C-13.8905 174.189 61.5211 185.386 125.444 174.484L135.165 173.011L124.266 164.172C55.335 109.664 -45.1156 81.9683 -132.899 93.7537Z" fill="white" fill-opacity="0.53"/>
            <path d="M109.832 218.974C36.4821 255.215 -20.0766 312.374 -54.2474 385.149C-60.4335 398.702 -64.8522 410.488 -63.9685 411.372C-61.6118 414.023 -9.17723 387.801 11.1485 374.248C69.4747 334.472 116.312 275.25 141.351 209.841C142.824 206.01 143.413 203.064 143.119 203.064C142.824 203.064 127.801 210.135 109.832 218.974Z" fill="white" fill-opacity="0.53"/>
            <path d="M171.693 231.642C168.452 263.168 172.282 331.229 179.057 356.568C191.429 404.593 217.057 457.333 242.391 487.386L252.407 499.172L254.469 478.842C258.004 447.021 254.174 381.612 247.399 356.273C233.848 304.123 210.282 255.802 180.53 220.151L174.049 211.902L171.693 231.642Z" fill="white" fill-opacity="0.53"/>
            <path d="M462.734 310.607C447.71 317.679 425.912 330.053 414.129 337.714C386.144 356.571 343.136 399.293 323.988 427.873C306.903 453.211 284.22 498.585 285.988 503.594C287.166 507.719 336.066 483.853 363.167 465.881C392.035 446.729 433.865 404.007 454.191 373.365C469.509 350.089 493.664 301.179 491.013 298.822C490.424 298.233 477.757 303.536 462.734 310.607Z" fill="white" fill-opacity="0.53"/>
            <path d="M36.4825 -42.0752C18.5133 -16.1472 -21.5491 23.6286 -48.6501 43.0746L-73.3945 60.7528L-39.2237 65.4669C0.544136 71.065 35.0096 81.0827 68.8859 96.993L92.7466 107.895L81.5526 81.6719C67.1184 48.3781 56.8082 7.71828 52.9787 -28.5219C51.2113 -44.1376 49.7384 -57.3963 49.1492 -57.6909C48.5601 -58.2802 42.9631 -51.2089 36.4825 -42.0752Z" fill="white" fill-opacity="0.53"/>
            <path d="M-94.309 191.572C-79.2856 225.749 -71.332 255.508 -65.4405 296.462L-60.7273 329.756L-43.3473 306.185C-22.1378 277.311 15.568 240.776 42.3744 222.803L62.1111 209.544L45.0256 207.482C-5.64151 201.884 -56.6032 188.331 -88.712 172.126C-96.6656 168.001 -103.735 164.76 -104.619 164.76C-105.208 164.76 -100.495 176.84 -94.309 191.572Z" fill="white" fill-opacity="0.53"/>
            <path d="M241.213 257.571C241.213 258.454 245.632 268.177 251.228 279.079C268.608 313.551 281.57 361.282 285.105 403.121L286.872 424.924L301.012 403.71C319.57 375.72 356.098 338.006 385.555 316.203L409.121 298.82L383.199 296.463C369.059 295.284 344.02 290.864 327.524 287.034C300.423 280.552 286.872 275.838 252.407 260.812C246.221 258.16 241.213 256.687 241.213 257.571Z" fill="white" fill-opacity="0.53"/>
            <path d="M131.042 297.641C113.957 326.516 62.7003 378.077 28.2348 401.058L16.7463 408.719L32.6535 410.487C85.9718 416.969 132.515 429.638 168.159 447.022L184.655 455.271L177.88 441.718C161.089 408.424 141.058 335.649 141.058 307.07C141.058 290.275 137.523 287.034 131.042 297.641Z" fill="white" fill-opacity="0.53"/>
            </g>
            <defs>
            <clipPath id="clip0_3_1061">
            <rect width="767" height="769" fill="white" transform="translate(-236 -233)"/>
            </clipPath>
            </defs>
            </svg>
