<svg width="112" height="67" viewBox="0 0 112 67" fill="none" xmlns="http://www.w3.org/2000/svg">
<g clip-path="url(#clip0_1_73)">
<path d="M21.5423 8.95891C15.2865 12.0907 10.6955 16.8141 7.64323 23.206C7.0126 24.5666 6.55854 25.7474 6.63422 25.8501C6.73512 25.9271 7.79458 25.5164 9.00539 24.926C15.2865 21.8455 20.054 17.1478 23.0811 11.0382C24.2919 8.57385 24.5946 7.70106 24.2667 7.70106C24.1405 7.70106 22.9297 8.26581 21.5423 8.95891Z" fill="white"/>
<path d="M8.82898 28.4685C8.19835 28.5455 7.69385 28.7252 7.69385 28.8792C7.71907 29.3156 11.1245 31.6003 13.7479 32.8838C19.02 35.4765 25.4776 36.452 30.9515 35.5022L31.7839 35.3739L30.8506 34.6037C24.9479 29.8547 16.3461 27.4417 8.82898 28.4685Z" fill="white"/>
<path d="M5.19649 31.2922C5.09559 31.4462 4.96947 33.0377 4.89379 34.8347C4.59109 41.6374 6.50821 48.1577 10.519 53.8565C11.9064 55.8331 11.9569 55.7818 12.2343 52.2393C12.6884 46.0527 10.7713 38.8136 7.16406 33.3715C5.85235 31.3435 5.42352 30.9071 5.19649 31.2922Z" fill="white"/>
<path d="M29.6147 39.3786C23.3336 42.5361 18.4904 47.5161 15.5642 53.8568C15.0345 55.0376 14.6561 56.0644 14.7318 56.1414C14.9336 56.3725 19.4237 54.0878 21.1642 52.9069C26.1588 49.4414 30.1696 44.2817 32.3138 38.5828C32.4399 38.2491 32.4904 37.9924 32.4651 37.9924C32.4399 37.9924 31.1534 38.6085 29.6147 39.3786Z" fill="white"/>
<path d="M34.9117 40.4822C34.6342 43.2289 34.9621 49.1588 35.5423 51.3665C36.6017 55.5508 38.7963 60.1458 40.9657 62.7642L41.8234 63.791L41.9999 62.0198C42.3026 59.2473 41.9747 53.5485 41.3945 51.3408C40.2342 46.7971 38.2162 42.5872 35.6684 39.4811L35.1135 38.7623L34.9117 40.4822Z" fill="white"/>
<path d="M59.8344 47.3621C58.5479 47.9782 56.6812 49.0564 55.6722 49.7238C53.2758 51.3667 49.5929 55.0889 47.9533 57.579C46.4902 59.7866 44.5479 63.7399 44.6992 64.1763C44.8002 64.5357 48.9875 62.4564 51.3083 60.8905C53.7803 59.2219 57.3623 55.4997 59.1029 52.8299C60.4146 50.802 62.483 46.5407 62.256 46.3353C62.2056 46.284 61.1209 46.746 59.8344 47.3621Z" fill="white"/>
<path d="M16.9008 58.7083C16.2701 58.7596 15.6647 58.9136 15.5638 59.042C15.2863 59.2987 18.0359 61.301 20.7098 62.7385C25.3008 65.2286 30.371 66.3838 35.6683 66.127C37.4593 66.05 39.0485 65.8703 39.1746 65.742C39.5278 65.3826 36.3746 63.1236 33.6755 61.7631C29.4629 59.6324 26.1332 58.811 21.3152 58.6826C19.5242 58.6313 17.5314 58.6313 16.9008 58.7083Z" fill="white"/>
<path d="M52.7461 12.6812C52.5443 12.9122 52.4686 15.6589 52.519 22.2306L52.5947 31.4463H53.3515H54.1082L54.1839 22.2306C54.2344 12.9635 54.1839 12.3218 53.3515 12.3218C53.1749 12.3218 52.8974 12.4758 52.7461 12.6812Z" fill="white"/>
<path d="M23.3333 16.6344C21.7946 18.8934 18.364 22.3589 16.0432 24.0532L13.9243 25.5934L16.8504 26.0041C20.2558 26.4919 23.2072 27.3647 26.1081 28.7509L28.1513 29.7007L27.1928 27.416C25.9567 24.5152 25.0739 20.9727 24.7459 17.8152C24.5946 16.4547 24.4685 15.2995 24.418 15.2739C24.3676 15.2225 23.8883 15.8386 23.3333 16.6344Z" fill="white"/>
<path d="M42.7314 17.9694C40.9656 18.3544 39.8557 18.9192 39.8557 19.4582C39.8557 20.177 40.4359 20.3054 41.6467 19.8946C43.0341 19.3812 45.7332 19.4069 46.6917 19.8946C47.7007 20.4337 48.4323 21.7173 48.4323 22.9238C48.4323 23.4628 48.3566 23.8479 48.2305 23.7709C48.1296 23.7196 47.171 23.5399 46.1115 23.3858C42.4286 22.8724 39.78 23.8479 38.9728 26.0299C37.8377 29.059 39.9566 31.6261 43.6142 31.6004C45.3043 31.6004 46.4142 31.1897 47.5998 30.1885L48.407 29.4954L48.4827 30.3169C48.5836 31.318 49.2142 31.8314 49.7944 31.3437C50.1476 31.0613 50.198 30.2912 50.198 26.4663C50.1728 21.7686 49.971 20.5364 49.0124 19.4582C47.953 18.2261 44.9007 17.5073 42.7314 17.9694ZM47.5494 24.8747C48.2305 25.0287 48.3061 25.1314 48.3818 26.1839C48.5584 28.4173 47.0953 29.9575 44.5223 30.2142C42.7061 30.4196 41.3187 29.8035 40.7638 28.6226C40.2593 27.5701 40.2593 27.3648 40.7638 26.3123C41.344 25.0801 42.3782 24.6437 44.7746 24.6694C45.8845 24.695 47.1458 24.772 47.5494 24.8747Z" fill="white"/>
<path d="M60.0865 18.3799C54.991 20.9726 55.5459 29.5209 60.9694 31.3435C61.4487 31.4976 62.6595 31.5746 63.6685 31.5232C65.182 31.4462 65.7369 31.2922 66.7207 30.6761C68.2847 29.6749 68.6126 29.1615 68.0577 28.5968C67.6541 28.1861 67.5784 28.1861 66.7964 28.7765C65.5351 29.7263 64.6775 30.0343 63.2649 30.0343C60.818 30.0343 58.9766 28.5454 58.4216 26.1067L58.2703 25.4136H63.2649C66.8216 25.4136 68.3351 25.3366 68.5622 25.1056C69.0919 24.5665 68.9153 22.6669 68.209 21.1523C66.7712 18.0462 63.164 16.814 60.0865 18.3799ZM65.1063 19.8431C66.0144 20.4592 67.0991 22.3075 67.0991 23.283V23.8734H62.6847H58.2703L58.4216 23.1546C58.7496 21.8198 59.5315 20.5363 60.4649 19.8945C61.7514 19.0217 63.8703 18.996 65.1063 19.8431Z" fill="white"/>
<path d="M74.2882 17.9439C72.4719 18.406 71.3873 19.5355 71.2107 21.127C70.9584 23.3347 71.8413 24.1818 75.8269 25.5167C78.1224 26.2868 78.7783 26.8515 78.7783 27.981C78.7783 29.7266 76.8864 30.5738 74.3386 29.9063C73.481 29.6753 72.5224 29.3416 72.2197 29.1362C71.4882 28.6485 70.7314 28.6485 70.5296 29.1362C70.1512 30.163 73.3044 31.6006 75.8774 31.6006C78.7026 31.6006 80.4683 30.1374 80.4683 27.75C80.4683 25.7477 79.535 24.9006 76.0287 23.7711C73.7837 23.0266 72.9008 22.3592 72.9008 21.4351C72.9008 20.4853 73.153 20.0232 73.935 19.6381C74.9692 19.0734 76.3314 19.1761 78.0719 19.8948C79.4089 20.4596 79.6107 20.4853 79.9638 20.1515C80.2413 19.8435 80.2665 19.6381 80.0647 19.3044C79.4846 18.3803 75.9026 17.5075 74.2882 17.9439Z" fill="white"/>
<path d="M86.1441 18.3029C84.4288 19.1243 82.8396 21.0239 82.3351 22.7952C81.3513 26.1837 83.0918 29.8033 86.3459 31.1895C87.5062 31.6772 90.3062 31.7029 91.4414 31.2151C92.9044 30.5734 94.1153 29.4952 94.0396 28.9048C93.9134 28.0833 93.2576 28.1347 91.9711 29.0331C90.4576 30.137 88.3639 30.3423 86.8756 29.5722C84.9333 28.5454 83.9999 26.9538 83.9999 24.6435C83.9999 20.5876 87.481 18.1232 90.9369 19.7404C91.4918 19.9971 92.0972 20.3822 92.299 20.6132C92.7531 21.2036 93.5098 21.1523 93.8378 20.5362C94.0396 20.1512 93.9891 19.9201 93.6107 19.5351C91.8954 17.7895 88.3639 17.2247 86.1441 18.3029Z" fill="white"/>
<path d="M99.362 18.0466C97.6719 18.4316 96.562 19.0991 96.7638 19.6125C96.9908 20.2029 97.5458 20.2799 98.6557 19.8948C99.2359 19.6895 100.472 19.5098 101.405 19.5098C103.272 19.5098 104.533 20.1259 105.113 21.3067C105.466 21.9998 105.567 23.9764 105.239 23.7711C105.139 23.7197 104.18 23.54 103.121 23.386C98.4034 22.7186 95.3007 24.6182 95.6791 27.9297C95.9314 30.1887 97.7728 31.6006 100.497 31.6006C102.288 31.6006 103.398 31.2155 104.609 30.1887L105.416 29.4956L105.492 30.3171C105.593 31.3182 106.223 31.8316 106.803 31.3439C107.131 31.0615 107.207 30.3171 107.207 26.9286C107.207 22.3592 106.93 20.5879 106.047 19.5354C104.861 18.0979 101.96 17.4561 99.362 18.0466ZM104.558 24.8749C105.265 25.0289 105.315 25.1316 105.391 26.2355C105.542 28.5458 104.104 29.9833 101.43 30.2144C99.5386 30.3941 98.3278 29.855 97.7223 28.5458C97.344 27.7243 97.344 27.4933 97.6467 26.5948C98.1512 25.1316 99.2106 24.6439 101.784 24.6696C102.894 24.6952 104.155 24.7722 104.558 24.8749Z" fill="white"/>
<path d="M12.1332 36.9913C13.4197 39.9691 14.1008 42.5618 14.6053 46.13L15.0089 49.0308L16.4972 46.9771C18.3134 44.4614 21.5422 41.2783 23.8377 39.7124L25.5278 38.5572L24.0648 38.3775C19.726 37.8898 15.3621 36.7089 12.6125 35.297C11.9314 34.9377 11.326 34.6553 11.2504 34.6553C11.1999 34.6553 11.6035 35.7078 12.1332 36.9913Z" fill="white"/>
<path d="M40.8647 42.7414C40.8647 42.8184 41.2431 43.6656 41.7224 44.6154C43.2107 47.6188 44.3206 51.7774 44.6233 55.4226L44.7747 57.3223L45.9855 55.474C47.5747 53.0353 50.7026 49.7495 53.2251 47.8499L55.2431 46.3353L53.0233 46.1299C51.8125 46.0272 49.6684 45.6422 48.2557 45.3085C45.935 44.7437 44.7747 44.333 41.8233 43.0238C41.2936 42.7928 40.8647 42.6644 40.8647 42.7414Z" fill="white"/>
<path d="M31.4305 46.2326C29.9674 48.7483 25.5782 53.2406 22.6269 55.2429L21.6431 55.9104L23.0052 56.0644C27.571 56.6291 31.5566 57.733 34.6088 59.2475L36.0214 59.9663L35.4413 58.7855C34.0034 55.8847 32.2881 49.5441 32.2881 47.054C32.2881 45.5908 31.9854 45.3085 31.4305 46.2326Z" fill="white"/>
</g>
<defs>
<clipPath id="clip0_1_73">
<rect width="112" height="67" fill="white"/>
</clipPath>
</defs>
</svg>
