
<svg xmlns="http://www.w3.org/2000/svg" width="147" height="16" viewBox="0 0 147 16" fill="none">
  <path d="M0.666667 8C0.666666 10.9455 3.05448 13.3333 6 13.3333C8.94552 13.3333 11.3333 10.9455 11.3333 8C11.3333 5.05448 8.94552 2.66667 6 2.66667C3.05448 2.66667 0.666667 5.05448 0.666667 8ZM146.707 8.70712C147.098 8.31659 147.098 7.68343 146.707 7.29291L140.343 0.928944C139.953 0.53842 139.319 0.538419 138.929 0.928944C138.538 1.31947 138.538 1.95263 138.929 2.34316L144.586 8.00001L138.929 13.6569C138.538 14.0474 138.538 14.6806 138.929 15.0711C139.319 15.4616 139.953 15.4616 140.343 15.0711L146.707 8.70712ZM6 9L146 9.00001L146 7.00001L6 7L6 9Z" fill="#0D3B3B"/>
</svg>
