<svg width="538" height="539" viewBox="0 0 538 539" fill="none" xmlns="http://www.w3.org/2000/svg">
<path d="M381.386 11.5836C439.963 40.4242 482.951 83.9215 511.532 142.785C517.436 155.314 521.688 166.188 520.979 167.134C520.035 167.843 510.114 164.061 498.777 158.623C439.963 130.256 395.322 86.9947 366.978 30.7319C355.64 8.03764 352.806 9.15527e-05 355.877 9.15527e-05C357.058 9.15527e-05 368.395 5.20087 381.386 11.5836Z" fill="white" fill-opacity="0.2"/>
<path d="M500.43 191.246C506.335 191.955 511.059 193.61 511.059 195.028C510.822 199.047 478.936 220.087 454.371 231.906C405.005 255.783 344.538 264.766 293.283 256.019L285.489 254.837L294.228 247.745C349.499 204.011 430.042 181.79 500.43 191.246Z" fill="white" fill-opacity="0.2"/>
<path d="M534.443 217.251C535.388 218.67 536.569 233.326 537.277 249.874C540.112 312.52 522.16 372.565 484.605 425.046C471.614 443.248 471.141 442.775 468.543 410.152C464.292 353.18 482.243 286.516 516.019 236.4C528.302 217.724 532.317 213.705 534.443 217.251Z" fill="white" fill-opacity="0.2"/>
<path d="M305.802 291.715C364.616 320.792 409.966 366.653 437.365 425.044C442.325 435.918 445.868 445.374 445.16 446.083C443.27 448.211 401.227 427.171 384.929 416.297C338.162 384.383 300.606 336.867 280.529 284.386C279.348 281.313 278.876 278.949 279.112 278.949C279.348 278.949 291.394 284.623 305.802 291.715Z" fill="white" fill-opacity="0.2"/>
<path d="M256.201 301.88C258.799 327.175 255.729 381.783 250.296 402.113C240.376 440.646 219.827 482.961 199.513 507.074L191.483 516.53L189.829 500.218C186.995 474.687 190.065 422.207 195.498 401.877C206.363 360.034 225.259 321.265 249.115 292.66L254.312 286.041L256.201 301.88Z" fill="white" fill-opacity="0.2"/>
<path d="M22.8365 365.237C34.8826 370.911 52.3614 380.839 61.8093 386.986C84.2482 402.115 118.733 436.393 134.086 459.324C147.786 479.654 165.973 516.059 164.556 520.078C163.611 523.388 124.402 504.239 102.672 489.819C79.5242 474.453 45.984 440.175 29.6863 415.59C17.4039 396.914 -1.96436 357.672 0.161423 355.781C0.63382 355.308 10.7904 359.564 22.8365 365.237Z" fill="white" fill-opacity="0.2"/>
<path d="M424.846 469.724C430.751 470.196 436.42 471.615 437.364 472.797C439.963 475.161 414.217 493.6 389.18 506.838C346.192 529.769 298.716 540.407 249.114 538.043C232.344 537.334 217.463 535.679 216.282 534.497C212.975 531.187 242.5 510.384 267.774 497.855C307.219 478.234 338.397 470.669 383.511 469.487C400.281 469.014 418.941 469.014 424.846 469.724Z" fill="white" fill-opacity="0.2"/>
<path d="M364.617 82.2655C379.025 103.069 411.148 134.982 432.878 150.585L452.719 164.769L425.32 168.551C393.433 173.042 365.798 181.08 338.635 193.846L319.503 202.592L328.478 181.553C340.052 154.84 348.319 122.217 351.389 93.1398C352.807 80.6107 353.988 69.9727 354.46 69.7363C354.932 69.2635 359.42 74.9371 364.617 82.2655Z" fill="white" fill-opacity="0.2"/>
<path d="M469.488 269.729C457.442 297.151 451.065 321.028 446.341 353.887L442.561 380.6L428.626 361.688C411.619 338.521 381.386 309.208 359.892 294.787L344.066 284.15L357.766 282.495C398.392 278.003 439.255 267.129 465 254.127C471.378 250.817 477.046 248.217 477.755 248.217C478.227 248.217 474.448 257.909 469.488 269.729Z" fill="white" fill-opacity="0.2"/>
<path d="M200.458 322.685C200.458 323.394 196.915 331.195 192.427 339.942C178.492 367.601 168.099 405.897 165.264 439.466L163.847 456.959L152.51 439.939C137.629 417.481 108.34 387.222 84.7206 369.728L65.8247 355.781L86.6102 353.89C97.9477 352.944 118.025 349.398 131.252 346.325C152.982 341.124 163.847 337.342 191.482 325.286C196.443 323.158 200.458 321.976 200.458 322.685Z" fill="white" fill-opacity="0.2"/>
<path d="M288.796 354.834C302.496 378.001 343.594 419.371 371.23 437.81L380.441 443.956L367.687 445.375C324.935 450.575 287.615 460.74 259.035 474.688L245.808 481.307L251.241 470.433C264.704 443.72 280.766 385.329 280.766 362.399C280.766 348.924 283.6 346.324 288.796 354.834Z" fill="white" fill-opacity="0.2"/>
</svg>
