<svg width="30" height="30" viewBox="0 0 30 30" fill="none" xmlns="http://www.w3.org/2000/svg">
<path d="M15 3.75C13.5226 3.75 12.0597 4.04099 10.6948 4.60636C9.3299 5.17172 8.08971 6.00039 7.04505 7.04505C6.00039 8.08971 5.17172 9.3299 4.60636 10.6948C4.04099 12.0597 3.75 13.5226 3.75 15C3.75 16.4774 4.04099 17.9403 4.60636 19.3052C5.17172 20.6701 6.00039 21.9103 7.04505 22.955C8.08971 23.9996 9.3299 24.8283 10.6948 25.3936C12.0597 25.959 13.5226 26.25 15 26.25C17.9837 26.25 20.8452 25.0647 22.955 22.955C25.0647 20.8452 26.25 17.9837 26.25 15C26.25 12.0163 25.0647 9.15483 22.955 7.04505C20.8452 4.93526 17.9837 3.75 15 3.75ZM16.4062 10.3125C16.4062 10.6852 16.2582 11.0427 15.9946 11.3062C15.7311 11.5698 15.3736 11.7178 15.0009 11.7178C14.6282 11.7178 14.2708 11.5698 14.0072 11.3062C13.7437 11.0427 13.5956 10.6852 13.5956 10.3125C13.5956 9.94004 13.7436 9.58283 14.007 9.31946C14.2703 9.05609 14.6275 8.90812 15 8.90812C15.3725 8.90812 15.7297 9.05609 15.993 9.31946C16.2564 9.58283 16.4044 9.94004 16.4044 10.3125H16.4062ZM15 13.125C15.2486 13.125 15.4871 13.2238 15.6629 13.3996C15.8387 13.5754 15.9375 13.8139 15.9375 14.0625V19.6875C15.9375 19.9361 15.8387 20.1746 15.6629 20.3504C15.4871 20.5262 15.2486 20.625 15 20.625C14.7514 20.625 14.5129 20.5262 14.3371 20.3504C14.1613 20.1746 14.0625 19.9361 14.0625 19.6875V14.0625C14.0625 13.8139 14.1613 13.5754 14.3371 13.3996C14.5129 13.2238 14.7514 13.125 15 13.125Z" fill="#0D3B3B"/>
</svg>
