<svg width="117" height="61" viewBox="0 0 117 61" fill="none" xmlns="http://www.w3.org/2000/svg">
<path d="M58.5006 0.489603C58.5006 0.489603 54.2334 4.86656 54.2334 11.9192C54.2334 18.9739 58.5006 21 58.5006 21C58.5006 21 62.7678 18.9739 62.7678 11.9192C62.7678 4.86656 58.5006 0.489603 58.5006 0.489603Z" fill="white"/>
<path d="M50.219 16.0065C43.7507 13.0039 37.9209 14.9526 37.9209 14.9526C37.9209 14.9526 40.1177 20.6265 46.5861 23.6291C53.0544 26.6316 56.7266 23.6807 56.7266 23.6807C56.7266 23.6807 56.6874 19.0091 50.219 16.0065Z" fill="white"/>
<path d="M66.7815 16.0065C60.3132 19.0091 60.2739 23.6807 60.2739 23.6807C60.2739 23.6807 63.9462 26.6316 70.4145 23.6291C76.8829 20.6265 79.0797 14.9526 79.0797 14.9526C79.0797 14.9526 73.2499 13.0039 66.7815 16.0065Z" fill="white"/>
<path d="M0 60.4992C0.17217 60.4992 2.08565 60.2261 2.08565 57.5268V37.1992C2.08565 34.4978 0.4119 34.2268 0.23973 34.2268V34.1945H4.27591L20.2201 55.1974V37.1992C20.2201 34.4978 18.3067 34.2268 18.0996 34.2268V34.1945H22.8223V34.2268C22.6174 34.2268 20.6996 34.4978 20.6996 37.1992V60.7358L2.60216 36.8615V57.5268C2.60216 60.2261 4.51564 60.4992 4.72268 60.4992V60.5315H0V60.4992Z" fill="white"/>
<path d="M41.3835 51.8875L36.1814 36.7607L30.332 51.8875H41.3835ZM24.4106 60.4995C24.6852 60.4995 26.638 60.0263 27.7647 57.1227L35.0176 38.4813C36.456 34.8357 33.9933 34.2592 33.856 34.2592V34.1947H38.5416L46.4113 57.0216C47.44 60.0586 48.9437 60.4629 49.1835 60.4629V60.5317H42.7849V60.4995C42.8546 60.4995 44.2232 60.1274 43.4016 57.6948L41.5535 52.3607H30.1598L28.1744 57.4948C27.1501 60.093 28.6539 60.4995 28.7236 60.4995V60.5317H24.4106V60.4995Z" fill="white"/>
<path d="M60.6593 60.059C62.8823 60.059 64.2836 59.4504 65.3123 58.3018C66.3366 57.2565 66.9882 55.7703 66.9882 53.6087C66.9882 50.5007 65.8942 46.7217 60.0077 46.7217H57.8175V60.059H60.6593ZM60.0077 46.2485C63.4293 46.2485 66.1339 44.0869 66.1339 39.9681C66.1339 38.2796 65.722 37.03 65.0028 36.1847C64.1485 35.105 62.8126 34.6662 60.8991 34.6662H57.8175V46.2485H60.0077ZM62.028 46.4507C65.9617 46.5174 70.1003 48.8145 70.1003 53.5764C70.1003 56.3768 68.9039 58.4029 66.6134 59.4848C65.2425 60.1945 63.1896 60.5322 61.1715 60.5322H52.8921V60.5C53.0621 60.5 54.7402 60.2268 54.7402 57.5275V37.1999C54.7402 34.4963 53.0621 34.2275 52.8921 34.2275V34.1952H61.3415C64.3861 34.1952 66.3366 34.7007 67.5025 35.8126C68.5966 36.7934 69.076 38.0775 69.076 39.6626C69.076 44.4246 63.9088 46.4163 62.028 46.4507Z" fill="white"/>
<path d="M73.3637 39.3933H73.3311V34.1947H93.6885V39.3933H93.6536C93.6536 38.9524 93.3442 34.6679 90.402 34.6679H85.0647V57.527C85.0647 60.2263 86.7429 60.4995 86.915 60.4995V60.5317H80.1067V60.4995C80.2767 60.4995 81.9526 60.2263 81.9526 57.527V34.6679H76.5827C73.6362 34.6679 73.3637 38.9524 73.3637 39.3933Z" fill="white"/>
<path d="M109.2 51.8875L103.998 36.7607L98.1484 51.8875H109.2ZM92.2271 60.4995C92.5017 60.4995 94.4544 60.0263 95.5811 57.1227L102.834 38.4813C104.272 34.8357 101.81 34.2592 101.672 34.2592V34.1947H106.358L114.228 57.0216C115.256 60.0586 116.76 60.4629 117 60.4629V60.5317H110.601V60.4995C110.671 60.4995 112.04 60.1274 111.218 57.6948L109.37 52.3607H97.9762L95.9908 57.4948C94.9665 60.093 96.4703 60.4995 96.54 60.4995V60.5317H92.2271V60.4995Z" fill="white"/>
</svg>
