<?xml version="1.0" encoding="utf-8"?><svg viewBox="0 0 671 671" xmlns="http://www.w3.org/2000/svg" xmlns:xlink="http://www.w3.org/1999/xlink"><style>:root>svg{display:none}:root>svg:target{display:block}</style><svg fill="none" viewBox="0 0 90 74" id="arrow-in-circle" xmlns="http://www.w3.org/2000/svg"><circle cx="37" cy="37" r="37" fill="#E3E2AA"/><path d="M89.707 37.707a1 1 0 000-1.414l-6.364-6.364a1 1 0 00-1.414 1.414L87.586 37l-5.657 5.657a1 1 0 001.414 1.414l6.364-6.364zM22 38h67v-2H22v2z" fill="#0D3B3B"/></svg><svg fill="none" viewBox="0 0 62 47" id="arrow-in-circle-mobile" xmlns="http://www.w3.org/2000/svg"><circle cx="23.5" cy="23.5" r="23.5" fill="#E3E2AA"/><path d="M61.707 24.707a1 1 0 000-1.414l-6.364-6.364a1 1 0 00-1.414 1.414L59.586 24l-5.657 5.657a1 1 0 001.414 1.414l6.364-6.364zM23 25h38v-2H23v2z" fill="#0D3B3B"/></svg><svg fill="none" viewBox="0 0 147 16" id="arrow-with-small-circle" xmlns="http://www.w3.org/2000/svg"><path d="M.667 8a5.333 5.333 0 1010.666 0A5.333 5.333 0 00.667 8zm146.04.707a1 1 0 000-1.414L140.343.929a1 1 0 10-1.414 1.414L144.586 8l-5.657 5.657a1 1 0 101.414 1.414l6.364-6.364zM6 9h140V7H6v2z" fill="#0D3B3B"/></svg><svg fill="none" viewBox="0 0 74 16" id="arrow-with-small-circle-mobile" xmlns="http://www.w3.org/2000/svg"><path d="M.667 8a5.333 5.333 0 1010.666 0A5.333 5.333 0 00.667 8zm73.04.707a1 1 0 000-1.414L67.343.929a1 1 0 10-1.414 1.414L71.586 8l-5.657 5.657a1 1 0 001.414 1.414l6.364-6.364zM6 9h67V7H6v2z" fill="#0D3B3B"/></svg><svg fill="none" viewBox="0 0 671 671" id="decor-1" xmlns="http://www.w3.org/2000/svg"><path d="M194.783 14.437C121.728 50.383 68.115 104.596 32.471 177.96c-7.364 15.616-12.667 29.169-11.783 30.348 1.178.883 13.55-3.831 27.69-10.607 73.35-35.357 129.025-89.275 164.374-159.398C226.892 10.018 230.426 0 226.597 0c-1.473 0-15.613 6.482-31.814 14.437zM46.316 238.359c-7.365.884-13.256 2.947-13.256 4.714.294 5.009 40.062 31.232 70.698 45.964 61.566 29.758 136.978 40.954 200.901 30.052l9.721-1.473-10.899-8.839c-68.931-54.507-169.382-82.203-257.166-70.418zM3.897 270.77c-1.178 1.768-2.651 20.035-3.535 40.659-3.535 78.079 18.853 152.917 65.69 218.326 16.202 22.687 16.791 22.097 20.032-18.562 5.302-71.008-17.086-154.095-59.21-216.558C11.556 271.359 6.548 266.35 3.897 270.77zm285.15 92.81c-73.35 36.24-129.909 93.399-164.08 166.175-6.186 13.553-10.604 25.338-9.721 26.222 2.357 2.652 54.792-23.571 75.117-37.124 58.327-39.776 105.164-98.998 130.203-164.407 1.473-3.83 2.062-6.777 1.768-6.777-.295 0-15.318 7.072-33.287 15.911zm61.861 12.668c-3.241 31.526.589 99.587 7.364 124.925 12.372 48.026 38 100.766 63.334 130.819l10.015 11.785 2.063-20.33c3.534-31.82-.295-97.23-7.07-122.568-13.551-52.151-37.117-100.471-66.869-136.122l-6.481-8.25-2.356 19.741zm291.041 78.965c-15.024 7.071-36.822 19.446-48.606 27.106-27.984 18.857-70.992 61.579-90.14 90.159-17.085 25.339-39.768 70.713-38 75.721 1.178 4.125 50.078-19.74 77.179-37.713 28.868-19.151 70.698-61.874 91.024-92.516 15.318-23.276 39.473-72.185 36.822-74.543-.589-.589-13.256 4.715-28.279 11.786zM140.581 585.44c-7.364.589-14.434 2.357-15.612 3.83-3.241 2.947 28.868 25.928 60.093 42.428 53.613 28.579 112.823 41.838 174.684 38.892 20.915-.884 39.473-2.947 40.946-4.42 4.124-4.125-32.698-30.053-64.218-45.668-49.194-24.455-88.078-33.884-144.342-35.357-20.915-.589-44.186-.589-51.551.295zm75.116-482.91c-17.969 25.928-58.031 65.704-85.132 85.15l-24.745 17.678 34.171 4.714c39.768 5.598 74.233 15.616 108.11 31.526l23.86 10.902-11.194-26.223c-14.434-33.293-24.744-73.953-28.573-110.193-1.768-15.616-3.241-28.875-3.83-29.17-.589-.589-6.186 6.483-12.667 15.616zM84.906 336.177c15.023 34.178 22.977 63.936 28.868 104.89l4.714 33.294 17.38-23.571c21.209-28.874 58.915-65.409 85.721-83.382l19.737-13.258-17.086-2.063c-50.667-5.598-101.628-19.151-133.737-35.356-7.954-4.125-15.024-7.366-15.907-7.366-.59 0 4.124 12.08 10.31 26.812zm335.522 65.999c0 .884 4.418 10.607 10.015 21.508 17.38 34.473 30.342 82.204 33.877 124.042l1.767 21.803 14.14-21.213c18.558-27.991 55.086-65.704 84.543-87.507l23.566-17.384-25.922-2.357c-14.14-1.179-39.179-5.598-55.675-9.428-27.101-6.482-40.652-11.197-75.117-26.223-6.186-2.652-11.194-4.125-11.194-3.241zm-110.171 40.071c-17.086 28.874-68.342 80.435-102.808 103.417l-11.488 7.66 15.907 1.768c53.318 6.482 99.861 19.152 135.505 36.535l16.496 8.25-6.775-13.553c-16.791-33.294-36.822-106.069-36.822-134.649 0-16.794-3.535-20.035-10.015-9.428z" fill="#fff" fill-opacity=".53"/></svg><svg fill="none" viewBox="0 0 538 539" id="decor-2" xmlns="http://www.w3.org/2000/svg"><path d="M381.386 11.584c58.577 28.84 101.565 72.337 130.146 131.201 5.904 12.529 10.156 23.403 9.447 24.349-.944.709-10.865-3.073-22.202-8.511-58.814-28.367-103.455-71.628-131.799-127.891C355.64 8.038 352.806 0 355.877 0c1.181 0 12.518 5.2 25.509 11.584zM500.43 191.246c5.905.709 10.629 2.364 10.629 3.782-.237 4.019-32.123 25.059-56.688 36.878-49.366 23.877-109.833 32.86-161.088 24.113l-7.794-1.182 8.739-7.092c55.271-43.734 135.814-65.955 206.202-56.499zm34.013 26.005c.945 1.419 2.126 16.075 2.834 32.623 2.835 62.646-15.117 122.691-52.672 175.172-12.991 18.202-13.464 17.729-16.062-14.894-4.251-56.972 13.7-123.636 47.476-173.752 12.283-18.676 16.298-22.695 18.424-19.149zm-228.641 74.464c58.814 29.077 104.164 74.938 131.563 133.329 4.96 10.874 8.503 20.33 7.795 21.039-1.89 2.128-43.933-18.912-60.231-29.786-46.767-31.914-84.323-79.43-104.4-131.911-1.181-3.073-1.653-5.437-1.417-5.437s12.282 5.674 26.69 12.766zm-49.601 10.165c2.598 25.295-.472 79.903-5.905 100.233-9.92 38.533-30.469 80.848-50.783 104.961l-8.03 9.456-1.654-16.312c-2.834-25.531.236-78.011 5.669-98.341 10.865-41.843 29.761-80.612 53.617-109.217l5.197-6.619 1.889 15.839zM22.837 365.237c12.046 5.674 29.524 15.602 38.972 21.749 22.44 15.129 56.924 49.407 72.277 72.338 13.7 20.33 31.887 56.735 30.47 60.754-.945 3.31-40.154-15.839-61.884-30.259-23.148-15.366-56.688-49.644-72.986-74.229-12.282-18.676-31.65-57.918-29.525-59.809.473-.473 10.63 3.783 22.675 9.456zm402.009 104.487c5.905.472 11.574 1.891 12.518 3.073 2.599 2.364-23.147 20.803-48.184 34.041-42.988 22.931-90.464 33.569-140.066 31.205-16.77-.709-31.651-2.364-32.832-3.546-3.307-3.31 26.218-24.113 51.492-36.642 39.445-19.621 70.623-27.186 115.737-28.368 16.77-.473 35.43-.473 41.335.237zM364.617 82.266c14.408 20.803 46.531 52.716 68.261 68.319l19.841 14.184-27.399 3.782c-31.887 4.491-59.522 12.529-86.685 25.295l-19.132 8.746 8.975-21.039c11.574-26.713 19.841-59.336 22.911-88.413 1.418-12.53 2.599-23.167 3.071-23.404.472-.473 4.96 5.201 10.157 12.53zm104.871 187.463c-12.046 27.422-18.423 51.299-23.147 84.158l-3.78 26.713-13.935-18.912c-17.007-23.167-47.24-52.48-68.734-66.901l-15.826-10.637 13.7-1.655c40.626-4.492 81.489-15.366 107.234-28.368 6.378-3.31 12.046-5.91 12.755-5.91.472 0-3.307 9.692-8.267 21.512zm-269.03 52.956c0 .709-3.543 8.51-8.031 17.257-13.935 27.659-24.328 65.955-27.163 99.524l-1.417 17.493-11.337-17.02c-14.881-22.458-44.17-52.717-67.79-70.211l-18.895-13.947 20.785-1.891c11.338-.946 31.415-4.492 44.642-7.565 21.73-5.201 32.595-8.983 60.23-21.039 4.961-2.128 8.976-3.31 8.976-2.601zm88.338 32.149c13.7 23.167 54.798 64.537 82.434 82.976l9.211 6.146-12.754 1.419c-42.752 5.2-80.072 15.365-108.652 29.313l-13.227 6.619 5.433-10.874c13.463-26.713 29.525-85.104 29.525-108.034 0-13.475 2.834-16.075 8.03-7.565z" fill="#fff" fill-opacity=".2"/></svg><svg fill="none" viewBox="0 0 480 416" id="decor-3" xmlns="http://www.w3.org/2000/svg"><path d="M382.286 12.505c58.578 28.84 101.566 72.338 130.146 131.201 5.905 12.529 10.156 23.404 9.448 24.349-.945.709-10.865-3.073-22.203-8.51-58.813-28.368-103.455-71.629-131.799-127.892C356.541 8.96 353.706.921 356.777.921c1.181 0 12.518 5.201 25.509 11.584zM501.33 192.167c5.905.71 10.629 2.364 10.629 3.783-.236 4.018-32.123 25.058-56.688 36.878-49.365 23.876-109.832 32.859-161.087 24.113l-7.795-1.182 8.739-7.092c55.271-43.734 135.815-65.956 206.202-56.5zm34.013 26.006c.945 1.418 2.126 16.075 2.835 32.623 2.834 62.645-15.117 122.69-52.673 175.171-12.991 18.203-13.463 17.73-16.061-14.893-4.252-56.972 13.699-123.637 47.476-173.753 12.282-18.676 16.297-22.694 18.423-19.148zm-228.64 74.463c58.813 29.077 104.163 74.938 131.563 133.329 4.96 10.874 8.503 20.33 7.794 21.039-1.889 2.128-43.933-18.912-60.231-29.786-46.767-31.914-84.323-79.43-104.399-131.91-1.181-3.073-1.654-5.437-1.418-5.437.237 0 12.283 5.673 26.691 12.765zm-49.601 10.165c2.598 25.295-.473 79.903-5.905 100.233-9.921 38.533-30.47 80.849-50.783 104.961l-8.031 9.456-1.653-16.311c-2.835-25.531.236-78.012 5.668-98.342 10.866-41.843 29.761-80.612 53.618-109.216l5.196-6.619 1.89 15.838zM23.737 366.158c12.046 5.674 29.525 15.603 38.973 21.749 22.439 15.13 56.924 49.407 72.277 72.338 13.699 20.33 31.886 56.736 30.469 60.754-.945 3.31-40.154-15.838-61.884-30.259-23.147-15.365-56.688-49.643-72.985-74.229-12.283-18.675-31.651-57.917-29.525-59.808.472-.473 10.629 3.782 22.675 9.455zm341.78-282.971c14.408 20.803 46.531 52.717 68.261 68.319l19.841 14.184-27.399 3.782c-31.887 4.492-59.522 12.529-86.685 25.295l-19.132 8.747 8.976-21.04c11.573-26.713 19.84-59.336 22.911-88.413 1.417-12.529 2.598-23.167 3.07-23.403.473-.473 4.961 5.2 10.157 12.529zm104.871 187.464c-12.046 27.422-18.423 51.298-23.147 84.157l-3.779 26.713-13.936-18.911c-17.006-23.167-47.24-52.481-68.734-66.901l-15.825-10.638 13.699-1.655c40.627-4.491 81.489-15.366 107.235-28.368 6.377-3.309 12.046-5.91 12.754-5.91.473 0-3.306 9.693-8.267 21.513zm-269.03 52.956c0 .709-3.543 8.51-8.03 17.257-13.936 27.658-24.329 65.955-27.163 99.523l-1.417 17.494-11.338-17.021c-14.88-22.458-44.169-52.717-67.789-70.21l-18.896-13.948 20.786-1.891c11.337-.945 31.414-4.491 44.641-7.565 21.73-5.2 32.596-8.983 60.231-21.039 4.96-2.128 8.975-3.31 8.975-2.6zm88.339 32.148c13.699 23.167 54.798 64.537 82.433 82.976l9.212 6.147-12.755 1.418c-42.752 5.201-80.071 15.366-108.651 29.313l-13.228 6.62 5.433-10.875c13.463-26.713 29.525-85.103 29.525-108.034 0-13.475 2.834-16.075 8.031-7.565z" fill="#fff" fill-opacity=".2"/></svg><svg fill="none" viewBox="0 0 531 428" id="decor-mobile" xmlns="http://www.w3.org/2000/svg"><g clip-path="url(#ha)" fill="#fff" fill-opacity=".53"><path d="M15.568-130.168C-57.487-94.223-111.1-40.01-146.744 33.355c-7.364 15.615-12.667 29.169-11.783 30.347 1.179.884 13.551-3.83 27.69-10.607C-57.487 17.74-1.812-36.179 33.537-106.303c14.14-28.285 17.675-38.303 13.845-38.303-1.473 0-15.612 6.482-31.814 14.438zM-132.899 93.754c-7.365.884-13.256 2.946-13.256 4.714.294 5.009 40.062 31.231 70.698 45.963 61.566 29.758 136.978 40.955 200.901 30.053l9.721-1.473-10.899-8.839C55.335 109.664-45.116 81.968-132.899 93.754zm242.731 125.22c-73.35 36.241-129.909 93.4-164.08 166.175-6.186 13.553-10.604 25.339-9.72 26.223 2.356 2.651 54.79-23.571 75.117-37.124 58.326-39.776 105.163-98.998 130.202-164.407 1.473-3.831 2.062-6.777 1.768-6.777-.295 0-15.318 7.071-33.287 15.91zm61.861 12.668c-3.241 31.526.589 99.587 7.364 124.926 12.372 48.025 38 100.765 63.334 130.818l10.016 11.786 2.062-20.33c3.535-31.821-.295-97.23-7.07-122.569-13.551-52.15-37.117-100.471-66.869-136.122l-6.481-8.249-2.356 19.74zm291.041 78.965c-15.024 7.072-36.822 19.446-48.605 27.107-27.985 18.857-70.993 61.579-90.141 90.159-17.085 25.338-39.768 70.712-38 75.721 1.178 4.125 50.078-19.741 77.179-37.713 28.868-19.152 70.698-61.874 91.024-92.516 15.318-23.276 39.473-72.186 36.822-74.543-.589-.589-13.256 4.714-28.279 11.785zM36.483-42.075C18.513-16.147-21.55 23.629-48.65 43.075l-24.744 17.678 34.17 4.714C.544 71.065 35.01 81.083 68.886 96.993l23.86 10.902-11.193-26.223C67.118 48.378 56.808 7.718 52.979-28.522c-1.768-15.616-3.24-28.874-3.83-29.169-.589-.59-6.186 6.482-12.666 15.616zM-94.309 191.572c15.023 34.177 22.977 63.936 28.868 104.89l4.714 33.294 17.38-23.571c21.21-28.874 58.915-65.409 85.721-83.382l19.737-13.259-17.085-2.062c-50.668-5.598-101.63-19.151-133.738-35.356-7.954-4.125-15.023-7.366-15.907-7.366-.589 0 4.124 12.08 10.31 26.812zm335.522 65.999c0 .883 4.419 10.606 10.015 21.508 17.38 34.472 30.342 82.203 33.877 124.042l1.767 21.803 14.14-21.214c18.558-27.99 55.086-65.704 84.543-87.507l23.566-17.383-25.922-2.357c-14.14-1.179-39.179-5.599-55.675-9.429-27.101-6.482-40.652-11.196-75.117-26.222-6.186-2.652-11.194-4.125-11.194-3.241zm-110.171 40.07C113.957 326.516 62.7 378.077 28.235 401.058l-11.489 7.661 15.908 1.768c53.318 6.482 99.861 19.151 135.505 36.535l16.496 8.249-6.775-13.553c-16.791-33.294-36.822-106.069-36.822-134.648 0-16.795-3.535-20.036-10.016-9.429z"/></g><defs><clipPath id="ha"><path fill="#fff" transform="translate(-236 -233)" d="M0 0h767v769H0z"/></clipPath></defs></svg><svg fill="none" viewBox="0 0 191 116" id="flowers" xmlns="http://www.w3.org/2000/svg"><path d="M93.093 0c-13.066 18.782-30.868 62.226 2.45 85.745C108.61 75.127 126.411 43.117 93.093 0zm89.48 61.556c-22.572-3.74-69.452-1.173-76.395 39.014 15.197 7.245 51.75 9.585 76.395-39.014zm-174.39 0c22.572-3.74 69.452-1.173 76.395 39.014-15.197 7.245-51.75 9.585-76.395-39.014z" fill="#fff"/></svg><svg fill="none" viewBox="0 0 30 30" id="notice" xmlns="http://www.w3.org/2000/svg"><path d="M15 3.75a11.25 11.25 0 100 22.5 11.25 11.25 0 000-22.5zm1.406 6.563a1.405 1.405 0 11-2.806 0 1.405 1.405 0 012.804 0h.002zM15 13.124a.938.938 0 01.938.938v5.624a.938.938 0 01-1.876 0v-5.625a.938.938 0 01.938-.937z" fill="#0D3B3B"/></svg></svg>